<svg width="201" height="160" viewBox="0 0 201 160" fill="none" xmlns="http://www.w3.org/2000/svg">
<path fill-rule="evenodd" clip-rule="evenodd" d="M32.7578 13C23.9213 13 16.7578 20.1634 16.7578 29V40H163.758V29C163.758 20.1634 156.594 13 147.758 13H32.7578ZM51.7578 36C53.967 36 55.7578 34.2091 55.7578 32C55.7578 29.7909 53.967 28 51.7578 28C49.5487 28 47.7578 29.7909 47.7578 32C47.7578 34.2091 49.5487 36 51.7578 36ZM104.758 32C104.758 34.2091 102.967 36 100.758 36C98.5487 36 96.7578 34.2091 96.7578 32C96.7578 29.7909 98.5487 28 100.758 28C102.967 28 104.758 29.7909 104.758 32ZM149.758 36C151.967 36 153.758 34.2091 153.758 32C153.758 29.7909 151.967 28 149.758 28C147.549 28 145.758 29.7909 145.758 32C145.758 34.2091 147.549 36 149.758 36ZM145.758 123V155L179.758 120H148.758C147.101 120 145.758 121.343 145.758 123ZM69.2578 128C86.6548 128 100.758 113.897 100.758 96.5C100.758 79.103 86.6548 65 69.2578 65C51.8608 65 37.7578 79.103 37.7578 96.5C37.7578 113.897 51.8608 128 69.2578 128Z" fill="#468C11" fill-opacity="0.4"/>
<path fill-rule="evenodd" clip-rule="evenodd" d="M51.2578 4V20H42.7578C33.9213 20 26.7578 27.1634 26.7578 36V79H27.7578V36C27.7578 27.7157 34.4735 21 42.7578 21H51.2578V31H52.2578V21H100.258V31H101.258V21H149.258V31H150.258V21H157.758C166.042 21 172.758 27.7157 172.758 36V48.5H163.758V49.5H172.758V112.18C172.758 112.29 172.74 112.398 172.705 112.5H141.758C139.825 112.5 138.258 114.067 138.258 116V147H28.7578C28.2055 147 27.7578 146.552 27.7578 146V97H26.7578V146C26.7578 147.105 27.6532 148 28.7578 148H139.258L162.511 124.41L161.804 123.703L139.258 146.576V116C139.258 114.619 140.377 113.5 141.758 113.5H171.861L167.42 118.005L168.127 118.712L173.182 113.584C173.551 113.21 173.758 112.705 173.758 112.18V49.5H184.758V48.5H173.758V36C173.758 27.1634 166.594 20 157.758 20H150.258V4H149.258V20H101.258V4H100.258V20H52.2578V4H51.2578ZM121.758 75.5H155.258V74.5H121.758V75.5ZM154.758 88.5H121.258V87.5H154.758V88.5ZM121.258 100.5H154.758V99.5H121.258V100.5ZM37.7578 48.5H149.758V49.5H37.7578V48.5ZM108.137 75.3261L92.6912 93.2764L91.9821 92.5673L107.379 74.6738L108.137 75.3261ZM86.7495 98.6485L87.4586 99.3576L76.2998 112.326L75.9635 112.717L75.5832 112.369L59.4199 97.5687L60.0952 96.8312L75.8782 111.283L86.7495 98.6485Z" fill="black"/>
</svg>
