<svg width="201" height="160" viewBox="0 0 201 160" fill="none" xmlns="http://www.w3.org/2000/svg">
<path fill-rule="evenodd" clip-rule="evenodd" d="M36.7578 25C36.7578 21.134 39.8918 18 43.7578 18H97.7578C101.624 18 104.758 21.134 104.758 25V60C104.758 63.866 101.624 67 97.7578 67H43.7578C39.8918 67 36.7578 63.866 36.7578 60V25ZM110.758 25C110.758 21.134 113.892 18 117.758 18H142.758C146.624 18 149.758 21.134 149.758 25V28C149.758 31.866 146.624 35 142.758 35H117.758C113.892 35 110.758 31.866 110.758 28V25ZM117.758 38C113.892 38 110.758 41.134 110.758 45V47C110.758 50.866 113.892 54 117.758 54H142.758C146.624 54 149.758 50.866 149.758 47V45C149.758 41.134 146.624 38 142.758 38H117.758ZM110.758 64C110.758 60.134 113.892 57 117.758 57H142.758C146.624 57 149.758 60.134 149.758 64V66C149.758 69.866 146.624 73 142.758 73H117.758C113.892 73 110.758 69.866 110.758 66V64ZM43.7578 107C39.8918 107 36.7578 110.134 36.7578 114V116C36.7578 119.866 39.8918 123 43.7578 123H97.7578C101.624 123 104.758 119.866 104.758 116V114C104.758 110.134 101.624 107 97.7578 107H43.7578Z" fill="#468C11" fill-opacity="0.4"/>
<path fill-rule="evenodd" clip-rule="evenodd" d="M59.0672 138.174L58.5035 137.789L57.9398 138.174L45.0811 146.95L32.7578 138.539V47H31.7578V139.068L45.0811 148.161L58.5035 139L68.9026 146.097L69.6222 145.378L59.0672 138.174ZM75.9095 144.909L76.629 145.629L86.3418 139L100.261 148.5L114.181 139L128.1 148.5L142.019 139L155.938 148.5L168.758 139.75V122H167.758V139.222L155.938 147.289L142.583 138.174L142.019 137.789L141.456 138.174L128.1 147.289L114.745 138.174L114.181 137.789L113.617 138.174L100.261 147.29L86.9055 138.174L86.3418 137.789L85.7781 138.174L75.9095 144.909ZM32.7578 19V41H31.7578V19C31.7578 14.5817 35.3395 11 39.7578 11H160.758C165.176 11 168.758 14.5817 168.758 19V117H167.758V19C167.758 15.134 164.624 12 160.758 12H39.7578C35.8918 12 32.7578 15.134 32.7578 19ZM148.758 45H123.758C120.444 45 117.758 47.6863 117.758 51V53C117.758 56.3137 120.444 59 123.758 59H148.758C152.072 59 154.758 56.3137 154.758 53V51C154.758 47.6863 152.072 45 148.758 45ZM123.758 44C119.892 44 116.758 47.134 116.758 51V53C116.758 56.866 119.892 60 123.758 60H148.758C152.624 60 155.758 56.866 155.758 53V51C155.758 47.134 152.624 44 148.758 44H123.758ZM44.7578 84.5H109.758V83.5H44.7578V84.5ZM109.758 93.5H44.7578V92.5H109.758V93.5ZM44.7578 103.5H109.758V102.5H44.7578V103.5ZM77.7578 24H49.7578C45.8918 24 42.7578 27.134 42.7578 31V66C42.7578 69.866 45.8918 73 49.7578 73H50.7578V72H49.7578C46.4441 72 43.7578 69.3137 43.7578 66V31C43.7578 27.6863 46.4441 25 49.7578 25H77.7578V24ZM98.7578 25H103.758C107.072 25 109.758 27.6863 109.758 31V66C109.758 69.3137 107.072 72 103.758 72H71.7578V73H103.758C107.624 73 110.758 69.866 110.758 66V31C110.758 27.134 107.624 24 103.758 24H98.7578V25ZM123.758 24H148.758V25H123.758C120.444 25 117.758 27.6863 117.758 31V34C117.758 37.3137 120.444 40 123.758 40H148.758C152.072 40 154.758 37.3137 154.758 34V32H155.758V34C155.758 37.866 152.624 41 148.758 41H123.758C119.892 41 116.758 37.866 116.758 34V31C116.758 27.134 119.892 24 123.758 24ZM79.7578 113H49.7578C45.8918 113 42.7578 116.134 42.7578 120V122C42.7578 125.866 45.8918 129 49.7578 129H103.758C107.624 129 110.758 125.866 110.758 122V120C110.758 116.134 107.624 113 103.758 113H96.7578V114H103.758C107.072 114 109.758 116.686 109.758 120V122C109.758 125.314 107.072 128 103.758 128H49.7578C46.4441 128 43.7578 125.314 43.7578 122V120C43.7578 116.686 46.4441 114 49.7578 114H79.7578V113ZM116.758 72V70H117.758V72C117.758 75.3137 120.444 78 123.758 78H148.758C152.072 78 154.758 75.3137 154.758 72V70C154.758 66.6863 152.072 64 148.758 64H127.758V63H148.758C152.624 63 155.758 66.134 155.758 70V72C155.758 75.866 152.624 79 148.758 79H123.758C119.892 79 116.758 75.866 116.758 72Z" fill="black"/>
</svg>
