<svg width="199" height="160" viewBox="0 0 199 160" fill="none" xmlns="http://www.w3.org/2000/svg">
<g clip-path="url(#clip0_1154_5185)">
<path fill-rule="evenodd" clip-rule="evenodd" d="M92.8317 31.2059L99.0907 29.4501C106.535 27.3627 118.858 48.0854 126.615 75.7363C134.372 103.388 134.625 127.497 127.18 129.585L127.165 129.589L120.777 131.381C119.792 131.657 118.729 131.539 117.821 131.068C88.1278 115.658 68.1797 112.443 19.1598 121.45C15.286 122.161 11.2655 121.308 8.05508 119.026L7.64992 118.738C5.05083 116.891 3.16336 114.209 2.30212 111.139C1.4646 108.153 1.64613 104.973 2.81801 102.102L2.98681 101.689C4.57672 97.794 7.82549 94.8043 11.8075 93.4469C62.3767 76.2091 75.863 60.9947 90.3472 33.2326C90.8614 32.2471 91.7615 31.5061 92.8317 31.2059ZM40.1214 130.979L54.1412 149.272C55.4759 151.014 58.2355 149.646 57.6582 147.53L52.8392 129.86L40.1214 130.979Z" fill="#468C11" fill-opacity="0.4"/>
<path fill-rule="evenodd" clip-rule="evenodd" d="M141.971 3.93883L127.568 18.6733L126.853 17.9743L141.255 3.23982L141.971 3.93883ZM167.249 34.0395L147.272 43.7315L146.836 42.8318L166.813 33.1398L167.249 34.0395ZM185.318 107.066L163.116 106.846L163.126 105.846L185.328 106.066L185.318 107.066ZM183.552 145.506L160.007 139.955L160.236 138.982L183.781 144.533L183.552 145.506ZM160.232 76.395L194.732 68.5522L194.511 67.5771L160.011 75.4199L160.232 76.395ZM42.8571 126.469C39.1392 127.008 35.2361 127.639 31.1226 128.362L31.1366 128.483C30.7817 128.524 30.432 128.544 30.0875 128.545C29.1276 128.716 28.1563 128.892 27.1733 129.072C23.2995 129.784 19.279 128.931 16.0686 126.649L15.6634 126.361C13.0643 124.514 11.1769 121.831 10.3156 118.761C9.4781 115.776 9.65963 112.596 10.8315 109.725L11.0003 109.312C12.5902 105.417 15.839 102.427 19.821 101.07C27.903 98.3146 35.0379 95.6113 41.381 92.9002L41.749 93.8305C36.2696 96.1716 30.2093 98.504 23.4711 100.866L23.5162 101.027C20.9649 101.743 19.3748 103.764 18.6267 106.48C17.8759 109.206 17.994 112.583 18.8462 115.848C19.6981 119.112 21.2705 122.214 23.3745 124.401C25.2274 126.327 27.4709 127.525 30.0017 127.545C52.9667 123.463 69.5084 122.178 83.859 123.731C97.059 125.159 108.353 128.982 121.039 135.157C120.251 134.431 119.473 133.63 118.708 132.762C116.13 129.838 113.668 126.128 111.373 121.886C110.769 120.768 110.175 119.613 109.594 118.425L110.573 118.15C111.122 119.268 111.683 120.356 112.253 121.41C114.524 125.608 116.945 129.25 119.458 132.1C121.973 134.954 124.56 136.989 127.159 138.009L127.126 138.093C127.588 138.184 128.067 138.168 128.52 138.041L131.852 137.106C130.644 136.684 129.401 135.882 128.154 134.783C125.789 132.699 123.294 129.451 120.808 125.303C115.831 116.999 110.83 104.981 106.943 91.1259C104.596 82.758 102.945 74.7513 101.99 67.5891L102.962 67.3163C103.287 69.7733 103.695 72.3331 104.187 74.9758L104.233 74.8442C114.063 78.3344 119.659 82.7472 121.04 88.1573C122.423 93.575 119.512 99.7147 113.071 106.471L113.012 106.415C115.75 113.611 118.717 119.868 121.665 124.789C124.126 128.895 126.559 132.045 128.815 134.033C131.059 136.01 133.016 136.745 134.612 136.332L134.924 136.245C136.269 135.867 137.503 134.414 138.38 131.512C139.24 128.664 139.663 124.704 139.612 119.88C139.511 110.246 137.528 97.3952 133.666 83.6289C129.804 69.8627 124.814 57.8557 119.89 49.5745C117.424 45.4274 115.004 42.2654 112.788 40.2803C110.529 38.2575 108.72 37.6582 107.374 38.0356L107.129 38.1043L107.13 38.105C105.522 38.556 104.208 40.2079 103.308 43.1032C102.736 44.9417 102.35 47.2248 102.155 49.8864L101.133 50.1732C101.322 47.3027 101.727 44.8177 102.353 42.8063C102.847 41.2187 103.491 39.8859 104.305 38.8966L101.115 39.7914C100.613 39.9322 100.159 40.204 99.7934 40.5714L99.8107 40.5859C99.5992 40.8395 99.3965 41.1124 99.2024 41.4038C98.817 42.1418 98.4322 42.8713 98.0472 43.5924C97.4581 44.9928 96.9918 46.6419 96.6465 48.5101C96.0102 51.9529 95.7931 56.0933 95.9487 60.6923C96.2601 69.8895 98.0602 80.8663 100.924 91.6531C101.02 92.0132 101.117 92.3731 101.215 92.7328L100.252 93.0029C100.153 92.6387 100.055 92.2743 99.9577 91.9097C97.0793 81.0686 95.2638 70.0157 94.9493 60.7261C94.7921 56.0817 95.0096 51.8645 95.6632 48.3284C95.7001 48.1286 95.7384 47.9309 95.7782 47.7352C89.6171 58.6733 83.0594 67.6476 73.2567 75.6824C68.5847 79.5118 63.1865 83.1189 56.7591 86.6239L56.3884 85.687C77.6936 74.0443 87.4345 61.34 97.1438 43.1613C97.4963 42.3299 97.8941 41.5716 98.3399 40.8951C98.3469 40.8818 98.3538 40.8685 98.3607 40.8552C98.8749 39.8698 99.775 39.1288 100.845 38.8285L107.104 37.0728C114.549 34.9844 126.872 55.7074 134.629 83.3588C142.386 111.01 142.639 135.119 135.194 137.208L134.949 137.276L134.949 137.277C134.923 137.284 134.897 137.291 134.871 137.298L128.791 139.004C127.806 139.28 126.743 139.162 125.835 138.691C102.802 126.737 85.6335 122.122 56.2123 124.856L60.9227 142.127C61.6444 144.773 58.1948 146.483 56.5265 144.306L42.8571 126.469ZM55.202 124.952L59.958 142.391C60.391 143.978 58.3212 145.004 57.3203 143.698L43.9923 126.307C47.9273 125.75 51.6536 125.299 55.202 124.952ZM27.1434 128.061C25.46 127.489 23.9514 126.443 22.6538 125.094C20.4055 122.757 18.7633 119.49 17.8786 116.101C16.9943 112.713 16.8538 109.152 17.6626 106.215C18.0975 104.635 18.8129 103.223 19.8428 102.123C16.2637 103.435 13.3631 106.169 11.9261 109.69L11.7574 110.103C10.6695 112.768 10.501 115.72 11.2784 118.491C12.0779 121.341 13.83 123.831 16.2427 125.546L16.6479 125.834C19.6325 127.955 23.3777 128.753 26.9926 128.089C27.0429 128.079 27.0932 128.07 27.1434 128.061ZM107.906 90.8558C106.462 85.7094 105.285 80.7052 104.372 75.9566C113.844 79.3975 118.844 83.5966 120.071 88.4047C121.297 93.2064 118.827 98.8839 112.652 105.459C110.956 100.917 109.354 96.0172 107.906 90.8558Z" fill="black"/>
</g>
<defs>
<clipPath id="clip0_1154_5185">
<rect width="198.758" height="160" fill="white"/>
</clipPath>
</defs>
</svg>
