<svg width="200" height="160" viewBox="0 0 200 160" fill="none" xmlns="http://www.w3.org/2000/svg">
<path d="M140.581 12.3443C142.693 7.73586 148.14 5.71161 152.749 7.82298C157.357 9.93435 159.381 15.3818 157.27 19.9902L107.871 127.811L92.5052 143.85C91.1932 145.219 88.8897 144.164 89.0701 142.276L91.1827 120.165L140.581 12.3443Z" fill="#468C11" fill-opacity="0.4"/>
<path fill-rule="evenodd" clip-rule="evenodd" d="M159.115 25.0807L157.454 28.7066L158.377 29.0921L160.024 25.4972C162.135 20.8888 160.111 15.4413 155.503 13.33C150.894 11.2186 145.447 13.2428 143.335 17.8512L139.208 26.8598L137.228 25.9527L136.812 26.8619L138.792 27.7689L120.47 67.7596L121.393 68.1451L139.701 28.1854L157.672 36.4193L158.089 35.5102L140.117 27.2763L144.245 18.2678C146.126 14.1615 150.98 12.3577 155.086 14.2391C159.192 16.1204 160.996 20.9744 159.115 25.0807ZM110.559 131.062L151.196 42.3647L152.119 42.7502L110.768 133.007C110.769 133.101 110.768 133.194 110.767 133.289L110.64 133.287L110.625 133.318L95.2593 149.357C94.6876 149.953 93.9277 150.09 93.267 149.897L93.2518 149.979C48.0606 141.606 23.4843 135.661 13.0385 131.444C10.4327 130.392 8.64827 129.426 7.64581 128.521C7.14437 128.069 6.78986 127.589 6.66748 127.075C6.53765 126.53 6.68706 126.025 7.03184 125.595C7.36158 125.184 7.86975 124.838 8.48984 124.537C9.11636 124.234 9.8943 123.958 10.8022 123.707C12.618 123.205 15.0037 122.784 17.8463 122.432C29.2115 121.022 48.1586 120.664 68.1089 120.657C72.9719 120.655 77.8965 120.674 82.7879 120.704V121.704C77.8962 121.674 72.9718 121.655 68.1092 121.657C48.148 121.664 29.2631 122.023 17.9694 123.424C15.1473 123.774 12.8165 124.187 11.0689 124.671C10.195 124.913 9.4794 125.169 8.92618 125.437C8.36654 125.709 8.00877 125.975 7.81194 126.221C7.63015 126.448 7.59237 126.643 7.64028 126.844C7.69565 127.076 7.88383 127.389 8.3156 127.779C9.17955 128.558 10.8236 129.471 13.4129 130.517C23.6341 134.643 47.6825 140.488 91.9514 148.721C91.8408 148.442 91.7914 148.126 91.8242 147.783L93.9368 125.672L117.734 73.7295L118.658 74.115L95.4948 124.672C101.461 121.247 109.197 124.577 110.559 131.062ZM109.762 132.773C109.497 125.602 100.841 121.678 94.883 126.282L92.8197 147.878C92.7295 148.822 93.8812 149.35 94.5372 148.665L109.762 132.773ZM74.253 65.6157C83.3812 65.9703 93.5647 66.6564 103.898 67.5904V68.5945C93.5487 67.6576 83.3498 66.9698 74.2141 66.6149C61.8463 66.1344 51.4622 66.2658 45.2894 67.2045C43.7484 67.4388 42.4877 67.721 41.5319 68.0494C40.558 68.384 39.9743 68.7426 39.7019 69.0819C39.5751 69.24 39.5251 69.382 39.5193 69.5152C39.5133 69.6523 39.5522 69.8282 39.6846 70.053C39.9596 70.5195 40.5813 71.1006 41.6727 71.7865C43.8392 73.1479 47.6263 74.7838 53.3522 76.7151C59.0683 78.6431 66.6849 80.8554 76.4878 83.3778C82.9566 85.0424 89.3625 86.6622 95.6376 88.2357V89.2666C89.2769 87.672 82.7848 86.0307 76.2386 84.3463C66.4228 81.8206 58.7805 79.6014 53.0326 77.6627C47.2946 75.7272 43.4128 74.061 41.1407 72.6332C40.0128 71.9244 39.2229 71.239 38.8231 70.5607C38.6182 70.2131 38.5039 69.847 38.5203 69.4717C38.5368 69.0926 38.6846 68.7518 38.9221 68.4559C39.3785 67.8873 40.1899 67.4531 41.2069 67.1036C42.2421 66.748 43.5681 66.4547 45.1391 66.2158C51.4144 65.2616 61.8823 65.1351 74.253 65.6157ZM136.94 98.5681V99.6001L137.36 99.7071L138.135 99.905C156.148 104.511 170.516 108.489 178.372 111.743C180.335 112.556 181.87 113.315 182.947 114.017C183.485 114.367 183.896 114.695 184.186 114.998C184.479 115.304 184.626 115.559 184.679 115.762C184.727 115.947 184.706 116.115 184.6 116.294C184.485 116.489 184.257 116.716 183.858 116.96C183.056 117.449 181.704 117.92 179.709 118.351C171.739 120.073 154.344 120.994 124.549 120.994C123.797 120.994 123.032 120.993 122.255 120.991V121.991C123.032 121.993 123.797 121.994 124.549 121.994C154.318 121.994 171.826 121.078 179.921 119.329C181.942 118.892 183.429 118.393 184.379 117.813C184.856 117.522 185.232 117.19 185.462 116.802C185.7 116.397 185.763 115.957 185.646 115.51C185.534 115.081 185.267 114.68 184.908 114.306C184.547 113.929 184.069 113.554 183.493 113.179C182.34 112.428 180.74 111.641 178.755 110.819C170.819 107.533 156.376 103.537 138.382 98.9362C137.904 98.8139 137.423 98.6912 136.94 98.5681Z" fill="black"/>
</svg>
