<svg width="100" height="70" viewBox="0 0 100 70" fill="none" xmlns="http://www.w3.org/2000/svg">
<rect x="0.5" y="0.5" width="99" height="69" rx="9.5" stroke="black" stroke-opacity="0.3" stroke-dasharray="2 2"/>
<path fill-rule="evenodd" clip-rule="evenodd" d="M60.9226 12L61.5 11L62.0774 12L79.5422 42.25L80.1195 43.25H78.9648H58.3845C56.2877 51.1657 49.0752 57 40.5 57C30.2827 57 22 48.7173 22 38.5C22 28.2827 30.2827 20 40.5 20C45.478 20 49.9969 21.9662 53.3222 25.1643L60.9226 12ZM52.8063 26.0579C49.6449 22.9309 45.298 21 40.5 21C30.835 21 23 28.835 23 38.5C23 48.165 30.835 56 40.5 56C48.5187 56 55.2777 50.6069 57.3477 43.25H44.0352H42.8805L43.4578 42.25L52.8063 26.0579ZM57.5973 42.25H44.6125L53.5253 26.8125C56.3075 29.9111 58 34.0079 58 38.5C58 39.7872 57.861 41.0419 57.5973 42.25ZM58.6197 42.25C58.869 41.039 59 39.7848 59 38.5C59 33.634 57.1214 29.2068 54.0498 25.9041L61.5 13L78.3875 42.25H58.6197Z" fill="black" fill-opacity="0.3"/>
</svg>
